<mxfile host="app.diagrams.net" agent="Mozilla/5.0 (Windows NT 10.0; Win64; x64) AppleWebKit/537.36 (KHTML, like Gecko) Chrome/135.0.0.0 Safari/537.36 Edg/135.0.0.0" version="26.2.13">
  <diagram name="Halaman-1" id="-ZUEVp842J6Q3C7lnHFT">
    <mxGraphModel dx="1019" dy="426" grid="1" gridSize="10" guides="1" tooltips="1" connect="1" arrows="1" fold="1" page="1" pageScale="1" pageWidth="827" pageHeight="1169" math="0" shadow="0">
      <root>
        <mxCell id="0" />
        <mxCell id="1" parent="0" />
        <mxCell id="p674Rw30oJ0euYAKjEG1-1" value="Pool" style="swimlane;childLayout=stackLayout;resizeParent=1;resizeParentMax=0;startSize=20;html=1;" vertex="1" parent="1">
          <mxGeometry x="120.00000000000045" y="30" width="410" height="480" as="geometry" />
        </mxCell>
        <mxCell id="p674Rw30oJ0euYAKjEG1-2" value="" style="swimlane;startSize=20;html=1;" vertex="1" parent="p674Rw30oJ0euYAKjEG1-1">
          <mxGeometry y="20" width="20" height="460" as="geometry" />
        </mxCell>
        <mxCell id="p674Rw30oJ0euYAKjEG1-3" value="Lane 2" style="swimlane;startSize=20;html=1;" vertex="1" parent="p674Rw30oJ0euYAKjEG1-1">
          <mxGeometry x="20" y="20" width="170" height="460" as="geometry" />
        </mxCell>
        <mxCell id="p674Rw30oJ0euYAKjEG1-4" value="Lane 3" style="swimlane;startSize=20;html=1;" vertex="1" parent="p674Rw30oJ0euYAKjEG1-1">
          <mxGeometry x="190" y="20" width="220" height="460" as="geometry" />
        </mxCell>
      </root>
    </mxGraphModel>
  </diagram>
</mxfile>
